<svg xmlns="http://www.w3.org/2000/svg" width="358.52" height="24.83" viewBox="0 0 358.52 24.83"><g id="Grupo_4723" data-name="Grupo 4723" transform="translate(-713.001 -1256)"><g id="Grupo_454" data-name="Grupo 454" transform="translate(713.001 1260.324)"><path id="Caminho_182" data-name="Caminho 182" d="M2864.572-2981.737l2.45-14.381h3.92l-2.452,14.381Zm18.079-14.07a10.118,10.118,0,0,0-3.513-.6c-3.873,0-6.6,1.95-6.625,4.745-.022,2.067,1.948,3.219,3.435,3.907,1.526.706,2.038,1.154,2.031,1.784-.01.964-1.219,1.4-2.345,1.4a8.22,8.22,0,0,1-3.689-.755l-.505-.229-.551,3.219a12.4,12.4,0,0,0,4.366.767c4.121,0,6.8-1.928,6.826-4.913.015-1.636-1.029-2.881-3.291-3.907-1.37-.665-2.209-1.109-2.2-1.782,0-.6.71-1.237,2.245-1.237a7.222,7.222,0,0,1,2.934.551l.351.166.531-3.116m10.087-.31h-3.029a1.949,1.949,0,0,0-2.052,1.193l-5.821,13.179h4.116s.673-1.772.825-2.161l5.02.006c.117.5.476,2.156.476,2.156h3.638l-3.173-14.372Zm-4.805,9.285c.324-.828,1.561-4.02,1.561-4.02-.023.039.322-.832.52-1.372l.265,1.24s.75,3.433.907,4.152Zm-26.688-9.285-3.838,9.807L2857-2988.3a11.224,11.224,0,0,0-5.428-6.032l3.51,12.576,4.147,0,6.171-14.353h-4.152" transform="translate(-2847.455 2997.08)" fill="#bacad6"></path><path id="Caminho_183" data-name="Caminho 183" d="M2832.288-3000.583h-6.321l-.05.3c4.918,1.19,8.172,4.067,9.522,7.523l-1.375-6.608a1.642,1.642,0,0,0-1.777-1.215" transform="translate(-2825.917 3000.583)" fill="#bacad6"></path></g><g id="Grupo_455" data-name="Grupo 455" transform="translate(775.501 1256)"><path id="Caminho_184" data-name="Caminho 184" d="M3230.632-3012.861a12.219,12.219,0,0,1,.188-1.388c.079-.486.594-3.553.594-3.553h.874a13.219,13.219,0,0,1,3.75-6.811,12.358,12.358,0,0,0-8-2.934,12.429,12.429,0,0,0-12.415,12.415,12.429,12.429,0,0,0,12.415,12.415,12.352,12.352,0,0,0,8-2.934,13.225,13.225,0,0,1-3.6-6.163,2.86,2.86,0,0,1-.725.1A1,1,0,0,1,3230.632-3012.861Zm-9.765,1.054.785-4.922-1.753,4.922h-.934l-.115-4.894-.825,4.894h-1.283l1.072-6.4h1.971l.055,3.964,1.33-3.964h2.128l-1.06,6.4Zm4.606,0,.025-.54a1.72,1.72,0,0,1-1.436.63,1.28,1.28,0,0,1-1.251-1.422c0-1.268.885-2.007,2.405-2.007a4.581,4.581,0,0,1,.56.04,1.294,1.294,0,0,0,.053-.338c0-.345-.238-.473-.878-.473a4.585,4.585,0,0,0-1.452.233c.015-.086.19-1.17.19-1.17a5.467,5.467,0,0,1,1.641-.276c1.177,0,1.8.529,1.8,1.525a6.615,6.615,0,0,1-.112,1.033c-.118.754-.373,2.371-.408,2.765Zm4.013-3.1a1.425,1.425,0,0,1,.966,1.451c0,1.19-.668,1.741-2.114,1.741a6.364,6.364,0,0,1-1.426-.154c.008-.055.188-1.2.188-1.2a3.861,3.861,0,0,0,1.229.205c.542,0,.788-.147.788-.471,0-.236-.086-.314-.641-.575a1.521,1.521,0,0,1-1.044-1.454c0-.963.526-1.763,2.059-1.763a9.33,9.33,0,0,1,1.206.1l-.194,1.208a7.713,7.713,0,0,0-.985-.079c-.443,0-.671.145-.671.426C3228.846-3015.23,3228.913-3015.172,3229.487-3014.908Z" transform="translate(-3215.622 3027.546)" fill="#bacad6"></path><path id="Caminho_185" data-name="Caminho 185" d="M3268.717-2943.21a.478.478,0,0,0,.491.53c.559,0,.96-.531.984-1.3a2.282,2.282,0,0,0-.305-.021C3269.109-2944,3268.717-2943.737,3268.717-2943.21Z" transform="translate(-3260.202 2957.402)" fill="#bacad6"></path><path id="Caminho_186" data-name="Caminho 186" d="M3404.507-2944c-.776,0-1.17.266-1.17.792a.478.478,0,0,0,.491.53c.559,0,.961-.531.984-1.3A2.278,2.278,0,0,0,3404.507-2944Z" transform="translate(-3373.231 2957.402)" fill="#bacad6"></path><path id="Caminho_187" data-name="Caminho 187" d="M3358.37-3027.546a12.357,12.357,0,0,0-8,2.934,13.2,13.2,0,0,1,3.878,7.537,2.8,2.8,0,0,1,2.375-1.294,4.743,4.743,0,0,1,1.507.333l-.224,1.39a2.614,2.614,0,0,0-1.224-.346c-1.023,0-1.741.988-1.741,2.4,0,.972.482,1.56,1.279,1.56a2.661,2.661,0,0,0,1.164-.328l-.241,1.459a4.272,4.272,0,0,1-1.21.188,2.22,2.22,0,0,1-1.8-.806,13.209,13.209,0,0,1-3.761,6.874,12.353,12.353,0,0,0,8,2.934,12.43,12.43,0,0,0,12.416-12.415A12.43,12.43,0,0,0,3358.37-3027.546Zm2.965,15.739H3360.2l.025-.54a1.72,1.72,0,0,1-1.436.63,1.281,1.281,0,0,1-1.252-1.422c0-1.268.886-2.007,2.406-2.007a4.574,4.574,0,0,1,.559.04,1.326,1.326,0,0,0,.053-.338c0-.345-.238-.473-.878-.473a4.583,4.583,0,0,0-1.451.233c.014-.086.19-1.17.19-1.17a5.458,5.458,0,0,1,1.64-.276c1.177,0,1.8.529,1.8,1.525a6.545,6.545,0,0,1-.111,1.033C3361.625-3013.817,3361.369-3012.2,3361.335-3011.807Zm1.828,0h-1.37l.062-.35c.239-1.613.543-3.245.715-4.856h1.259a4.648,4.648,0,0,1-.082.789c.42-.616.741-.94,1.314-.821a5.133,5.133,0,0,0-.52,1.511C3363.772-3015.613,3363.653-3014.99,3363.162-3011.807Zm4.13,0,.064-.485a1.614,1.614,0,0,1-1.264.575c-1,0-1.655-.858-1.655-2.161,0-1.731,1.021-3.192,2.23-3.192a1.546,1.546,0,0,1,1.309.71l.3-1.85h1.351l-1.043,6.4Z" transform="translate(-3328.757 3027.546)" fill="#bacad6"></path><path id="Caminho_188" data-name="Caminho 188" d="M3448.058-2954.216c-.622,0-1.063.726-1.063,1.75,0,.681.237,1.026.7,1.026.639,0,1.087-.723,1.087-1.755C3448.784-2953.856,3448.53-2954.216,3448.058-2954.216Z" transform="translate(-3409.887 2965.977)" fill="#bacad6"></path><path id="Caminho_189" data-name="Caminho 189" d="M3334.871-2955.211c-.433,0-.744.331-.87.929h1.5C3335.513-2954.39,3335.65-2955.211,3334.871-2955.211Z" transform="translate(-3315.016 2966.812)" fill="#bacad6"></path><path id="Caminho_190" data-name="Caminho 190" d="M3330.481-2997.073c0-.41-.026-.815-.069-1.216a5.849,5.849,0,0,0-.258.931c-.769-.078-.887.545-1.376,3.729h-1.371l.063-.35c.238-1.613.543-3.245.715-4.857h1.258a4.733,4.733,0,0,1-.082.79c.329-.483.6-.785.974-.837a12.4,12.4,0,0,0-3.667-7.013,12.4,12.4,0,0,0-3.673,7.06h.354l-.186,1.251h-.3c-.01.209-.016.42-.016.632a12.376,12.376,0,0,0,3.817,8.943,12.379,12.379,0,0,0,3.775-7.967c-.007-.106-.012-.214-.012-.326A5.758,5.758,0,0,1,3330.481-2997.073Zm-4.763,2.357a3.226,3.226,0,0,0,1.417-.329l-.227,1.3a4.651,4.651,0,0,1-1.4.211,2.071,2.071,0,0,1-2.319-2.323c0-1.781,1.011-3.091,2.384-3.091a1.74,1.74,0,0,1,1.841,1.885,5.593,5.593,0,0,1-.168,1.281h-2.713C3324.443-2995.032,3324.926-2994.717,3325.719-2994.717Z" transform="translate(-3305.653 3009.369)" fill="#bacad6"></path></g><path id="Caminho_191" data-name="Caminho 191" d="M4510.3-2986.751h.19l.152-.051.152-.051.134-.136.134-.137.07-.181.072-.182,0-.267,0-.267-.063-.1-.062-.1-.11-.067-.109-.068h-.474l-.161.073-.16.071-.094.1-.093.1-.073.173-.074.172-.015.269-.013.27.068.134.067.134.133.06.131.06Zm30.411,7.67h.687v-.42l.079-.521c.044-.286.116-.74.16-1.008s.1-.607.123-.754.083-.465.136-.707.117-.5.144-.581a.919.919,0,0,0,.05-.181,2.211,2.211,0,0,1,.131-.314l.129-.274.17-.227.171-.227.188-.141a2.7,2.7,0,0,1,.368-.229l.179-.087.393,0,.394,0,.154.049.155.049.026-.016.026-.016,0-.1a4,4,0,0,1,.075-.457l.074-.355-.083-.033c-.079-.029-.16-.057-.239-.082l-.158-.049h-.565l-.23.081-.231.081-.173.1-.173.1-.225.236-.225.235-.122.183a.777.777,0,0,1-.13.173c0-.006.032-.215.081-.466s.09-.488.09-.526l0-.071h-1.162v.02c0,.011-.03.212-.065.448s-.106.689-.158,1.009q-.093.574-.187,1.147c-.054.33-.113.661-.174.99-.044.233-.121.644-.172.912s-.135.7-.187.958l-.151.762-.058.291Zm-15.93,0h.671l.021-.284c.01-.156.049-.471.083-.7s.108-.685.162-1.013q.1-.609.219-1.215c.068-.339.143-.677.17-.75a.874.874,0,0,0,.046-.176,1.7,1.7,0,0,1,.113-.287,3.813,3.813,0,0,1,.254-.456l.145-.212.19-.178.192-.178.237-.112.236-.114.363,0h.36l.178.054c.1.029.186.053.2.053s.018-.033.018-.074.036-.248.079-.46.078-.395.078-.4a.807.807,0,0,0-.228-.089,2.923,2.923,0,0,0-.385-.089l-.158-.02-.2.037a2.625,2.625,0,0,0-.371.1,2.081,2.081,0,0,0-.337.17,2.387,2.387,0,0,0-.323.259,3.632,3.632,0,0,0-.315.371c-.069.094-.138.188-.207.283l-.046.063.029-.126c.014-.07.057-.3.092-.5s.074-.4.083-.432l.017-.055h-1.2v.076c0,.041-.036.292-.078.558s-.116.708-.16.984-.122.758-.173,1.069q-.082.5-.173.99-.177.943-.362,1.885c-.054.268-.117.584-.141.7s-.044.229-.044.243v.028Zm-15.812,0h.677l.019-.05a.594.594,0,0,0,.019-.16c0-.06.042-.374.094-.7q.177-1.1.365-2.206c.053-.31.109-.618.168-.927.05-.259.127-.663.17-.9s.131-.677.193-.986.12-.575.129-.59l.017-.028-.684.008-.684.009-.057.409c-.031.225-.1.67-.152.99s-.132.808-.176,1.084c-.054.331-.112.66-.172.99-.05.268-.128.678-.172.912s-.122.644-.174.911-.123.622-.157.786-.07.33-.081.369l-.019.071Zm-8.454,0h.764l.054-.338c.031-.186.09-.543.13-.793l.173-1.037c.053-.32.134-.793.179-1.053s.114-.662.155-.894a3.7,3.7,0,0,1,.094-.44l.018-.018h4.106l.023.022.022.022-.034.182c-.02.1-.078.408-.129.685s-.138.744-.191,1.038q-.085.464-.173.927c-.042.216-.126.669-.187,1.006s-.11.631-.11.653v.039h1.534l.033-.2c.018-.107.049-.3.066-.432s.062-.406.1-.613.105-.617.155-.911.137-.8.189-1.116.131-.787.174-1.037q.081-.472.17-.943c.051-.269.137-.721.188-1.006s.131-.717.175-.958.123-.681.176-.975.123-.637.151-.762l.053-.228h-1.553l-.021.149c-.012.082-.049.312-.083.511s-.1.552-.138.786-.118.678-.17.99-.1.61-.146.916l-.052.35-1.14.023-1.14.022-.955-.022c-.525-.013-.958-.025-.961-.028a2.249,2.249,0,0,1,.04-.272c.033-.188.069-.376.107-.565q.073-.36.141-.723c.042-.233.093-.523.11-.644s.052-.322.079-.448.076-.39.111-.587.071-.38.083-.408l.019-.05h-1.541l-.05.275c-.026.151-.062.367-.079.479s-.075.473-.127.8-.131.816-.175,1.084l-.172,1.084q-.091.566-.191,1.131-.085.464-.171.927c-.041.217-.119.627-.173.913s-.117.6-.176.9c-.043.208-.09.447-.1.534s-.063.336-.108.554-.081.42-.081.448v.05h.764Zm45.721.153.3,0,.283-.046c.156-.025.354-.065.44-.09a2.27,2.27,0,0,0,.346-.141l.188-.1.163-.143.163-.143.171-.228a3,3,0,0,0,.189-.275l.017-.047-.016.157q-.016.157-.043.314c-.015.086-.037.252-.048.369l-.021.212h1.234v-.425l.094-.8c.051-.44.127-1.027.169-1.3s.105-.673.143-.88.1-.582.146-.833.121-.689.172-.974.137-.737.186-1.006.126-.685.172-.927.125-.666.178-.943.113-.577.173-.864c.042-.2.076-.372.076-.385v-.023h-1.346l-.02.2c-.011.107-.063.465-.114.793q-.093.582-.188,1.164c-.039.223-.075.447-.111.67l-.018.105-.052-.023c-.03-.012-.188-.057-.352-.1l-.3-.074-.409-.032-.408-.032-.345.032-.346.032-.313.08-.315.08-.3.146-.3.146-.22.162-.219.163-.19.2a4.575,4.575,0,0,0-.335.412l-.146.208-.171.355c-.092.2-.207.455-.254.576s-.125.389-.179.6l-.1.376-.047.488-.047.488.034.393.037.394.042.141c.022.078.072.216.108.308l.066.167.121.164.123.165.138.113.138.113.188.093a2.63,2.63,0,0,0,.387.148,3.453,3.453,0,0,0,.393.08c.108.014.329.027.494.029Zm.536-.892-.237.012-.16-.029a1.7,1.7,0,0,1-.313-.095l-.153-.065-.128-.106-.13-.105-.191-.367-.043-.2-.044-.2,0-.409,0-.408.05-.362.051-.361.079-.251a2.438,2.438,0,0,0,.079-.29,1.483,1.483,0,0,1,.1-.251c.061-.135.125-.27.194-.4a3.177,3.177,0,0,1,.224-.359,3.169,3.169,0,0,1,.276-.314,2.187,2.187,0,0,1,.29-.23l.142-.087.247-.085.247-.086h1.037l.3.083c.164.045.338.1.387.117l.089.034-.018.086c-.009.048-.047.256-.083.463s-.107.6-.158.88-.128.694-.175.927-.108.531-.143.66-.071.266-.108.4a2.467,2.467,0,0,1-.131.345,2.751,2.751,0,0,1-.185.324,1.774,1.774,0,0,1-.2.239,2.709,2.709,0,0,1-.278.213l-.173.114-.5.159-.237.013Zm-11.16.88.425-.013.267-.068.267-.068.172-.081a3.127,3.127,0,0,0,.347-.2,2.654,2.654,0,0,0,.327-.268,3.681,3.681,0,0,0,.279-.318.825.825,0,0,1,.134-.157,2.257,2.257,0,0,1-.035.323,4.662,4.662,0,0,0-.045.511v.2h1.154l.018-.447.017-.448.083-.582c.045-.32.118-.794.163-1.053s.12-.7.17-.975.127-.708.173-.958l.085-.456,0-.394,0-.393-.09-.183-.089-.182-.12-.116-.121-.117-.2-.1-.2-.1-.589-.131-.408-.031-.406-.03-.523.032c-.289.018-.694.053-.9.078l-.376.046-.514,0-.039.181c-.021.1-.077.335-.126.525a2.623,2.623,0,0,0-.08.354,2.086,2.086,0,0,0,.3-.069c.162-.044.508-.115.767-.16l.472-.081.425-.017.423-.018.547.1.182.09.183.09.1.152.1.152,0,.24v.24l-.055.264-.054.264-1.132,0-1.13,0-.37.1a4.294,4.294,0,0,0-.5.166.767.767,0,0,1-.159.063,1.816,1.816,0,0,0-.27.149l-.24.149-.189.189a2.893,2.893,0,0,0-.294.346,3,3,0,0,0-.212.4l-.1.245-.048.273-.048.275v.576l.045.239.047.24.084.156a2.052,2.052,0,0,0,.191.281l.106.124.188.114.188.114.215.061c.117.033.3.074.4.09l.184.029.424-.012Zm.394-.879-.251.013-.167-.042a1.729,1.729,0,0,1-.309-.115l-.144-.073-.077-.092a1.391,1.391,0,0,1-.145-.223l-.067-.129-.014-.3-.013-.3.052-.184a3.052,3.052,0,0,1,.154-.389l.1-.205.19-.19.19-.188.2-.1.2-.1.252-.06.251-.059h1.572l.049.021.05.02-.042.247c-.023.136-.078.381-.122.545s-.121.4-.172.536-.093.247-.093.257a1.584,1.584,0,0,1-.115.212l-.115.193-.188.187a1.273,1.273,0,0,1-.214.187.58.58,0,0,0-.141.079l-.116.078-.254.081-.255.081-.251.013Zm-5.563.891.346,0,.392-.047c.216-.025.5-.067.639-.094q.247-.049.489-.115a1.74,1.74,0,0,0,.266-.09,1.607,1.607,0,0,0,.083-.317c.031-.162.072-.38.089-.483a.834.834,0,0,0,.019-.2c-.006-.007-.029,0-.051.02a2.592,2.592,0,0,1-.342.144l-.3.113-.431.083-.432.083-.367-.013-.367-.013-.208-.072-.208-.072-.16-.141-.161-.14-.107-.2-.106-.194-.052-.26-.051-.26v-.675l.062-.409.063-.409.065-.22c.037-.121.077-.262.091-.314a3.105,3.105,0,0,1,.127-.33c.057-.129.158-.33.226-.445l.121-.209.15-.155.148-.155.159-.1.157-.1.2-.062a3.585,3.585,0,0,1,.438-.1l.236-.037.346.018.345.018.408.082.41.081.167.062c.091.035.169.062.174.062a1.824,1.824,0,0,0,.048-.259c.023-.143.062-.377.088-.521a1.294,1.294,0,0,0,.033-.275,1.69,1.69,0,0,0-.273-.043c-.143-.017-.53-.045-.86-.064l-.6-.034-.424.033-.424.032-.313.066-.315.065-.2.082a3.091,3.091,0,0,0-.362.179c-.083.051-.167.1-.248.161a4.168,4.168,0,0,0-.33.3l-.241.237-.135.2a5.215,5.215,0,0,0-.283.5l-.15.3-.115.331c-.063.181-.151.478-.2.659l-.081.331-.029.3-.03.3v.786l.031.229.029.229.1.235.093.235.109.17.108.169.173.17.173.171.184.1.182.1.241.067a4.222,4.222,0,0,0,.424.093,5.135,5.135,0,0,0,.53.032Zm-9.994,0,.345,0,.345-.032c.19-.017.5-.054.692-.08s.519-.087.73-.133l.384-.085.019-.142c.011-.078.054-.31.1-.516l.078-.374-.018-.017-.017-.016-.117.056c-.065.032-.266.106-.447.166l-.331.109-.345.067-.347.066-.551,0h-.549l-.188-.061a2.926,2.926,0,0,1-.34-.134l-.149-.074-.248-.225-.1-.169-.1-.169-.062-.212-.06-.212v-.786l.052-.351.056-.35.945-.045,1.749.012,1.748.01.052-.223c.03-.124.074-.378.1-.566l.046-.342v-.575l-.05-.214-.049-.215-.082-.142a1.928,1.928,0,0,0-.178-.251,1.388,1.388,0,0,0-.206-.189c-.063-.043-.184-.116-.27-.163l-.158-.083-.275-.066-.273-.066-.339-.032-.337-.033-.314.021-.314.02-.377.073-.377.072-.235.095a4.266,4.266,0,0,0-.44.209,3.157,3.157,0,0,0-.345.23c-.078.063-.213.186-.3.272a2.84,2.84,0,0,0-.286.346c-.069.1-.177.287-.239.409s-.14.291-.176.377-.1.263-.146.393-.114.377-.155.55c-.048.209-.09.421-.125.632l-.05.318v.936l.048.2a3.658,3.658,0,0,0,.112.377,2.362,2.362,0,0,0,.143.314,1.857,1.857,0,0,0,.21.279,2.725,2.725,0,0,0,.287.254,2.228,2.228,0,0,0,.341.2l.186.084.256.063c.142.034.356.075.476.09s.373.03.564.033Zm.591-4.428c-.87,0-1.581-.006-1.581-.014s.038-.117.083-.243.125-.314.176-.418l.1-.188.208-.207.208-.207.2-.1a2.371,2.371,0,0,1,.329-.13,3.56,3.56,0,0,1,.44-.052l.314-.02.242.031.241.031.176.08.175.081.1.1a1.079,1.079,0,0,1,.14.187l.044.083.029.184.03.185-.034.306-.033.307Zm-9.352,7.2.018-.05a.485.485,0,0,0,.02-.143c0-.051.022-.237.05-.413s.091-.583.143-.9.126-.8.169-1.069.078-.508.115-.762a1.017,1.017,0,0,1,.057-.275.554.554,0,0,1,.1.149l.078.149.175.175.174.176.214.085.215.086.255.032.257.033.324-.02.324-.021.352-.091.351-.09.189-.086a3.959,3.959,0,0,0,.408-.229l.22-.143.2-.206a4.756,4.756,0,0,0,.355-.4,1.777,1.777,0,0,0,.147-.214.876.876,0,0,1,.09-.149,3.8,3.8,0,0,0,.222-.446c.074-.173.188-.485.255-.692l.122-.377.063-.327c.034-.18.08-.477.1-.66l.038-.333-.022-.283-.021-.283-.065-.283-.065-.282-.107-.212-.106-.212-.206-.217-.205-.218-.484-.251-.268-.064-.267-.064-.267-.02-.267-.02-.3.034-.3.034-.243.062-.243.062-.211.1a3.691,3.691,0,0,0-.375.2,1.764,1.764,0,0,0-.207.148,1.009,1.009,0,0,1-.126.1l-.082.054.058-.277c.032-.152.059-.293.059-.315l0-.039h-1.152l-.1.636c-.056.35-.144.891-.2,1.2q-.17,1.031-.344,2.059c-.052.3-.138.783-.189,1.068s-.129.7-.171.927-.12.648-.173.942q-.094.519-.193,1.038c-.062.324-.124.649-.188.974-.051.259-.1.5-.111.543l-.018.069h1.353Zm1.971-3.619-.171-.03-.172-.03-.173-.08-.174-.08-.122-.116-.122-.116-.071-.157a2.082,2.082,0,0,1-.11-.326l-.04-.169.016-.271.016-.271.08-.425c.061-.324.121-.649.178-.974.055-.3.135-.746.18-.985l.083-.435.18-.15a2.969,2.969,0,0,1,.349-.246l.17-.1.22-.067.219-.069.567-.033.229.049.231.049.163.075.163.075.137.137.136.137.073.145a2.005,2.005,0,0,1,.126.347l.053.2-.016.6-.016.6-.08.353c-.045.194-.128.491-.188.659l-.107.308-.132.249a4.208,4.208,0,0,1-.247.411,1.716,1.716,0,0,1-.227.256c-.072.062-.148.123-.224.18l-.116.086-.533.182-.525.031Z" transform="translate(-3518.308 4250.718)" fill="#bacad6"></path><g id="Grupo_456" data-name="Grupo 456" transform="translate(903.747 1257.02)"><path id="Caminho_192" data-name="Caminho 192" d="M4065.284-3016.15a6.608,6.608,0,0,1,2.122-.343,6.7,6.7,0,0,1,6.57,5.368l4.6-.938a11.4,11.4,0,0,0-11.166-9.122,11.284,11.284,0,0,0-3.607.587l1.485,4.449Z" transform="translate(-4056.016 3021.186)" fill="#bacad6"></path><path id="Caminho_193" data-name="Caminho 193" d="M4019.114-2986.254l3.109-3.52a6.688,6.688,0,0,1-2.258-5.025,6.668,6.668,0,0,1,2.258-5.016l-3.109-3.51a11.371,11.371,0,0,0-3.843,8.536A11.386,11.386,0,0,0,4019.114-2986.254Z" transform="translate(-4015.271 3006.189)" fill="#bacad6"></path><path id="Caminho_194" data-name="Caminho 194" d="M4073.924-2941.751a6.7,6.7,0,0,1-6.57,5.357,6.719,6.719,0,0,1-2.132-.342l-1.486,4.449a11.373,11.373,0,0,0,3.618.586,11.392,11.392,0,0,0,11.166-9.112l-4.6-.939Z" transform="translate(-4055.964 2954.491)" fill="#bacad6"></path><path id="Caminho_195" data-name="Caminho 195" d="M4199.986-2990.25a4.065,4.065,0,0,1-2.923,1.173,3.978,3.978,0,0,1-2.112-.636l-1.524,2.425a6.927,6.927,0,0,0,3.6,1.066,6.973,6.973,0,0,0,4.967-1.975l-2-2.052Zm-2.757-9.885a6.961,6.961,0,0,0-7.059,6.844,6.9,6.9,0,0,0,1.125,3.9l12.593-5.387a6.961,6.961,0,0,0-6.658-5.358m-4.174,7.392a3.9,3.9,0,0,1-.029-.489,4.093,4.093,0,0,1,4.155-4.028,4.044,4.044,0,0,1,3.06,1.457l-7.186,3.06Zm14.793-10.521v13.424l2.327.968-1.1,2.65-2.307-.958a2.576,2.576,0,0,1-1.135-.958,3,3,0,0,1-.45-1.662v-13.463Zm8.4,6.208a4.079,4.079,0,0,1,1.3-.2,4.091,4.091,0,0,1,4.009,3.275l2.806-.577a6.955,6.955,0,0,0-6.814-5.563,7.043,7.043,0,0,0-2.2.352l.9,2.718Zm-3.314,9.083,1.9-2.141a4.076,4.076,0,0,1-1.378-3.07,4.079,4.079,0,0,1,1.378-3.06l-1.9-2.142a6.948,6.948,0,0,0-2.346,5.211,6.925,6.925,0,0,0,2.346,5.2Zm8.624-4.38a4.1,4.1,0,0,1-4.009,3.275,4.127,4.127,0,0,1-1.3-.215l-.91,2.719a6.911,6.911,0,0,0,2.21.361,6.954,6.954,0,0,0,6.814-5.563l-2.806-.577Z" transform="translate(-4162.12 3006.137)" fill="#bacad6"></path></g><g id="Grupo_457" data-name="Grupo 457" transform="translate(1042.477 1256.888)"><path id="Caminho_196" data-name="Caminho 196" d="M4897.312-3022.014H4891.9a11.359,11.359,0,0,0-11.6,11.628,11.538,11.538,0,0,0,11.6,11.428h5.412c6.288.03,12.029-5.139,12.029-11.428A11.76,11.76,0,0,0,4897.312-3022.014Zm-5.378,22.082a10.543,10.543,0,0,1-10.53-10.553,10.545,10.545,0,0,1,10.53-10.555,10.544,10.544,0,0,1,10.531,10.555A10.543,10.543,0,0,1,4891.934-2999.932Z" transform="translate(-4880.297 3022.014)" fill="#bacad6"></path><path id="Caminho_197" data-name="Caminho 197" d="M4911.356-2982.99h0a6.7,6.7,0,0,0,4.286,6.241v-12.484A6.7,6.7,0,0,0,4911.356-2982.99Z" transform="translate(-4906.375 2994.49)" fill="#bacad6"></path><path id="Caminho_198" data-name="Caminho 198" d="M4967.859-2989.231v12.487h0a6.7,6.7,0,0,0,4.287-6.244A6.7,6.7,0,0,0,4967.859-2989.231Z" transform="translate(-4953.816 2994.489)" fill="#bacad6"></path></g><g id="Grupo_458" data-name="Grupo 458" transform="translate(831.86 1258.695)"><path id="Caminho_199" data-name="Caminho 199" d="M3607.9-3008.469l-1.072,2.487h2.148Zm-12.365,1.542a.633.633,0,0,0,.321-.594.569.569,0,0,0-.327-.552,1.664,1.664,0,0,0-.738-.112h-1.917v1.386h1.891A1.5,1.5,0,0,0,3595.538-3006.927Zm-24.563-1.542-1.059,2.487h2.124Zm49.321,15.937h-3.006v-1.338h2.994a.909.909,0,0,0,.63-.155.54.54,0,0,0,.185-.407.5.5,0,0,0-.191-.413.815.815,0,0,0-.548-.138c-1.461-.048-3.285.043-3.285-1.933,0-.9.6-1.858,2.234-1.858h3.1v-1.242h-2.881a3.342,3.342,0,0,0-1.948.511v-.511h-4.262a3.033,3.033,0,0,0-1.859.511v-.511h-7.611v.511a4.181,4.181,0,0,0-2.1-.511h-5.02v.511a3.668,3.668,0,0,0-2.194-.511h-5.618l-1.286,1.333-1.2-1.333h-8.392v8.709h8.233l1.325-1.354,1.248,1.354,5.075,0v-2.049h.5a5.481,5.481,0,0,0,2.168-.306v2.35h4.186v-2.27h.2c.257,0,.282.01.282.257v2.013h12.718a3.742,3.742,0,0,0,2.118-.558v.558h4.034a5.617,5.617,0,0,0,2.283-.4v-1.623a2.48,2.48,0,0,1-2.113.8Zm-25.812-2.057h-1.943v2.094h-3.026l-1.917-2.066-1.992,2.066h-6.167v-6.242h6.261l1.915,2.046,1.98-2.046h4.974c1.235,0,2.623.328,2.623,2.057s-1.35,2.091-2.71,2.091Zm9.34-.283a1.755,1.755,0,0,1,.258,1.139v1.237h-1.563v-.781c0-.375.038-.932-.251-1.222a1.564,1.564,0,0,0-1.143-.276h-1.663v2.279H3597.9v-6.242h3.594a4.009,4.009,0,0,1,1.873.294,1.453,1.453,0,0,1,.8,1.387,1.753,1.753,0,0,1-1.1,1.66,1.691,1.691,0,0,1,.762.524Zm6.431-2.574h-3.646v1.135h3.557v1.273h-3.557v1.242l3.646.006v1.295h-5.2v-6.242h5.2Zm4,4.951h-3.032v-1.338h3.02a.943.943,0,0,0,.635-.155.54.54,0,0,0,.184-.407.529.529,0,0,0-.19-.413.847.847,0,0,0-.554-.138c-1.456-.048-3.28.043-3.28-1.932,0-.906.594-1.858,2.226-1.858h3.122v1.328h-2.856a1.085,1.085,0,0,0-.623.114.472.472,0,0,0-.234.448.48.48,0,0,0,.34.465,1.855,1.855,0,0,0,.606.071l.838.022a2.587,2.587,0,0,1,1.778.5,1.7,1.7,0,0,1,.466,1.323c0,1.343-.876,1.97-2.446,1.97Zm-12.074-4.85a1.593,1.593,0,0,0-.742-.113h-1.917v1.4h1.891a1.547,1.547,0,0,0,.768-.129.664.664,0,0,0,.323-.6.59.59,0,0,0-.323-.562Zm17.394-.113a1.118,1.118,0,0,0-.63.113.481.481,0,0,0-.227.449.473.473,0,0,0,.341.465,1.86,1.86,0,0,0,.6.07l.844.022a2.535,2.535,0,0,1,1.767.5.817.817,0,0,1,.144.154v-1.776h-2.838Zm-25.037,0h-2.03v1.59h2.012c.6,0,.97-.285.97-.824S3595.1-2997.459,3594.538-2997.459Zm-13.547,0v1.135h3.417v1.273h-3.417v1.242h3.828l1.778-1.831-1.7-1.819Zm9.995,4.365v-5l-2.39,2.461,2.39,2.542Zm-9.864-10.021v1.075h13.006l-.006-2.275h.252c.176.006.227.021.227.3v1.976h6.727v-.53a5.526,5.526,0,0,0,2.5.53h2.83l.606-1.387h1.343l.593,1.387h5.453v-1.317l.825,1.316h4.371v-8.7h-4.325v1.028l-.606-1.028h-4.438v1.028l-.555-1.028h-5.995a5.58,5.58,0,0,0-2.6.508v-.508h-4.137v.508a2.642,2.642,0,0,0-1.758-.508h-15.113l-1.014,2.248-1.042-2.248h-4.76v1.028l-.523-1.028h-4.059l-1.885,4.138v3.31l2.788-6.24h2.313l2.647,5.909v-5.909h2.541l2.037,4.233,1.872-4.233h2.592v6.24h-1.6l-.006-4.887-2.257,4.887H3578.6l-2.263-4.891v4.891h-3.165l-.6-1.391h-3.241l-.6,1.391h-1.69v1.256h2.66l.6-1.386h1.343l.6,1.386h5.234v-1.061l.467,1.065h2.717l.467-1.081Zm20.5-5.692a3.246,3.246,0,0,1,2.364-.728h1.507v1.337h-1.475a1.54,1.54,0,0,0-1.2.37,2,2,0,0,0-.448,1.414,2.1,2.1,0,0,0,.429,1.465,1.543,1.543,0,0,0,1.085.322h.7l2.194-4.907h2.333l2.635,5.9v-5.9h2.37l2.737,4.346v-4.346h1.594v6.24h-2.206l-2.951-4.684v4.684h-3.17l-.606-1.392h-3.233l-.588,1.392h-1.822a3.369,3.369,0,0,1-2.257-.69,3.062,3.062,0,0,1-.831-2.382,3.226,3.226,0,0,1,.839-2.44Zm-3.2-.728H3600v6.24h-1.588Zm-7.162,0h3.581a3.82,3.82,0,0,1,1.885.3,1.446,1.446,0,0,1,.788,1.382,1.761,1.761,0,0,1-1.1,1.664,1.805,1.805,0,0,1,.771.525,1.737,1.737,0,0,1,.258,1.145v1.226h-1.571l-.005-.787a1.807,1.807,0,0,0-.246-1.215,1.57,1.57,0,0,0-1.135-.268h-1.671v2.27h-1.557v-6.24Zm-6.275,0h5.2v1.3h-3.643v1.125h3.556v1.279h-3.556v1.246h3.643v1.29h-5.2Z" transform="translate(-3567.036 3010.742)" fill="#bacad6"></path></g></g></svg>